# xmcd
#
# Track frame offsets: 
#        150
#        24632
#        48972
#        69345
#        93045
#        113657
#        135095
#        159050
#        185145
#        212445
#
# Disc length: 3134 seconds
#
# Revision: 2
# Processed by: cddbd v1.5.2PL0 Copyright (c) Steve Scherf et al.
# Submitted via: ExactAudioCopy v1.0b4
#
DISCID=700c3c0a
DTITLE=Jeff Redd - Down Low
DYEAR=1994
DGENRE=R&B
TTITLE0=Show You
TTITLE1=You Called and Told Me
TTITLE2=Dreamer
TTITLE3=I Still Do Care
TTITLE4=Sex Ain't The Only Thing
TTITLE5=Why? (My Guilt)
TTITLE6=Hard Soft, Slow Fast
TTITLE7=Down Low
TTITLE8=Let's Spend The Night
TTITLE9=Take It Off!!!
EXTD=
EXTT0=
EXTT1=
EXTT2=
EXTT3=
EXTT4=
EXTT5=
EXTT6=
EXTT7=
EXTT8=
EXTT9=
PLAYORDER=
